<svg width="34" height="35" viewBox="0 0 34 35" fill="none" xmlns="http://www.w3.org/2000/svg">
<path d="M14 22.4549C14 20.8042 15.3745 19.4445 17.0432 19.4445C18.7119 19.4445 20.0864 20.8042 20.0864 22.4549C20.0864 23.1392 19.8032 23.7343 19.4101 24.2423V25.7998C19.4101 27.0796 18.3369 28.1413 17.0432 28.1413C15.7495 28.1413 14.6763 27.0796 14.6763 25.7998V24.2423C14.2831 23.7343 14 23.1392 14 22.4549Z" stroke="#F0380F" stroke-width="3"/>
<rect x="1.5" y="13.9445" width="30.4444" height="19.5556" rx="2.5" stroke="#F0380F" stroke-width="3"/>
<path d="M8.5 9.72223C8.5 5.18122 12.1812 1.5 16.7222 1.5C21.2632 1.5 24.9444 5.18122 24.9444 9.72223V13.2778H8.5V9.72223Z" stroke="#F0380F" stroke-width="3"/>
</svg>
