<svg width="73" height="67" viewBox="0 0 73 67" fill="none" xmlns="http://www.w3.org/2000/svg">
<path d="M1.54465 28.985C2.10269 29.1169 2.55569 29.0773 2.91677 28.8926C3.44855 28.6485 3.90155 28.0482 4.15103 27.0124C4.42676 25.8579 4.25607 25.1058 3.78338 24.6572C3.57986 24.4461 3.30412 24.3339 3.13342 24.2746L2.89708 25.2575C3.04151 25.3103 3.16625 25.3829 3.25816 25.5082C3.48794 25.8315 3.50107 26.2339 3.35664 26.8277C3.23847 27.3357 2.97586 27.8173 2.57538 27.9888C2.38499 28.0679 2.13552 28.0811 1.78756 27.9954C1.47244 27.9228 1.24922 27.7975 1.11135 27.6391C0.855309 27.3489 0.776527 26.8739 0.920961 26.2471C1.07196 25.6072 1.34113 25.2509 1.62343 25.119C1.75474 25.053 1.91887 25.0332 2.05674 25.053L2.29308 24.07C2.14208 24.0371 1.85978 24.0239 1.61687 24.0898C1.00631 24.2812 0.415442 24.7957 0.120009 26.0426C-0.136032 27.118 0.0412274 27.837 0.428573 28.3252C0.658354 28.6419 1.03913 28.8596 1.54465 28.985ZM5.61506 22.4471L4.21668 21.7412L4.91915 20.3426L6.79679 20.0919L7.28918 19.1089L5.22115 19.4124C5.3065 19.1353 5.25398 18.845 5.12267 18.6339C5.02419 18.4624 4.8338 18.3041 4.57776 18.1721C4.29546 18.027 4.05911 17.9874 3.8359 18.0336C3.50107 18.0996 3.16625 18.3766 2.89051 18.9242L1.60374 21.4839L5.18176 23.2982L5.61506 22.4471ZM2.74608 20.9891L3.5536 19.3794C3.6849 19.1221 3.80307 19.0166 3.95407 18.9968C4.03942 18.977 4.1379 19.0166 4.22324 19.0628C4.29546 19.1023 4.38737 19.1617 4.43333 19.2409C4.49898 19.3398 4.48585 19.4982 4.36768 19.7291L3.5339 21.3916L2.74608 20.9891ZM10.5455 14.8933L9.91525 14.3919L8.04417 16.7537L7.41392 16.2523L9.20621 13.9895L8.57595 13.4881L6.78366 15.751L6.16653 15.2496L8.01135 12.9142L7.38109 12.4062L4.94541 15.4871L8.08356 17.994L10.5455 14.8933ZM12.0292 13.4155L11.7929 12.4524L13.5852 10.9086L14.4846 11.3044L15.279 10.6183L11.1298 8.88986L10.2501 9.64194L11.248 14.0885L12.0292 13.4155ZM11.5172 10.0246L12.7777 10.5721L11.5959 11.5881L11.2742 10.2291L11.1626 9.84645L11.5172 10.0246ZM15.3381 6.81833L17.0122 9.56277L17.8525 9.04819L16.1784 6.30375L17.6753 5.38014L17.2551 4.69403L13.4211 7.05583L13.8412 7.74194L15.3381 6.81833ZM24.1879 6.03986L23.8794 5.28778L21.1023 6.44229L20.7937 5.69681L23.4526 4.58847L23.1441 3.84299L20.4852 4.95132L20.1832 4.21903L22.9274 3.07771L22.6189 2.32563L19.008 3.83639L20.5377 7.55722L24.1879 6.03986ZM28.1861 4.96452C29.0724 4.75341 29.5189 4.35098 29.6699 3.8166C29.7749 3.47355 29.7486 3.1041 29.6042 2.49716C29.4729 1.9298 29.3285 1.59994 29.0724 1.34924C28.7048 0.966605 28.127 0.834661 27.2342 1.04577L24.7854 1.62633L25.7045 5.55167L28.1861 4.96452ZM27.2801 1.85063C27.7922 1.73188 28.1073 1.77806 28.3437 2.00896C28.4881 2.13431 28.5932 2.4048 28.6785 2.73466C28.7639 3.0975 28.8033 3.41417 28.7245 3.61209C28.6194 3.91556 28.3503 4.10688 27.8119 4.23222L26.4595 4.55549L25.9014 2.1739L27.2801 1.85063ZM35.5523 0.854453L35.5982 4.07389L36.583 4.0607L36.537 0.834661L38.2965 0.808272L38.2834 0.0100098L33.7862 0.0693847L33.7994 0.874244L35.5523 0.854453ZM41.7892 4.5225C42.7346 4.66104 43.4633 4.5291 43.9229 4.12667C44.2642 3.83639 44.494 3.40757 44.5794 2.80723C44.6647 2.22667 44.5991 1.77147 44.3233 1.38223C43.9491 0.854453 43.3386 0.531189 42.3866 0.392648C41.4281 0.254107 40.7781 0.399245 40.2398 0.828064C39.8787 1.12494 39.6752 1.54056 39.5964 2.08153C39.5111 2.68848 39.6161 3.17007 39.8853 3.55271C40.2398 4.0475 40.8635 4.38396 41.7892 4.5225ZM40.5746 2.23987C40.6271 1.88362 40.765 1.58015 40.9751 1.40862C41.2443 1.19751 41.6644 1.09195 42.2684 1.18431C42.9052 1.27667 43.2204 1.47459 43.4633 1.76487C43.634 1.97598 43.6602 2.33223 43.6077 2.68188C43.5552 3.02494 43.437 3.3482 43.2007 3.51973C42.8921 3.74403 42.5179 3.8298 41.9008 3.73743C41.3427 3.65167 41.0145 3.48014 40.7716 3.20966C40.5615 2.96556 40.5155 2.62251 40.5746 2.23987ZM50.4027 6.8843C51.4991 7.33951 52.2606 7.28014 52.7727 6.87771C53.0156 6.70618 53.1666 6.45549 53.252 6.29056L52.3197 5.90792C52.2475 6.04646 52.1556 6.15861 52.0177 6.22458C51.6632 6.40271 51.2693 6.35653 50.7047 6.11903C50.2254 5.92111 49.7921 5.58465 49.6805 5.16243C49.6346 4.95792 49.6542 4.70722 49.7921 4.37736C49.9169 4.08049 50.0679 3.87598 50.2451 3.75723C50.5668 3.54611 51.0461 3.53952 51.6435 3.78361C52.2475 4.03431 52.5626 4.35098 52.648 4.65445C52.6874 4.79299 52.6874 4.95792 52.648 5.08986L53.5802 5.4725C53.6327 5.32736 53.6918 5.05028 53.6656 4.79959C53.5737 4.15966 53.1535 3.49993 51.9718 3.01174C50.9542 2.58952 50.2188 2.66209 49.6739 2.97216C49.3326 3.15688 49.0634 3.49993 48.8599 3.98813C48.6432 4.5225 48.617 4.97771 48.7417 5.36695C48.8993 5.93431 49.4179 6.47528 50.4027 6.8843ZM55.5957 7.63639L56.9088 8.47423L56.9744 10.3742L57.9001 10.9614L57.8016 8.86347C58.0708 8.97562 58.3597 8.95583 58.5829 8.84368C58.7601 8.76451 58.9374 8.58638 59.095 8.34229C59.2657 8.0718 59.3247 7.8409 59.305 7.61C59.2722 7.26694 59.0293 6.9041 58.5172 6.58083L56.1078 5.04368L53.9544 8.44125L54.762 8.95583L55.5957 7.63639ZM56.4886 6.23118L57.9986 7.19437C58.2415 7.34611 58.3334 7.47805 58.34 7.63639C58.3465 7.72215 58.3006 7.82111 58.2481 7.90027C58.2021 7.97284 58.1365 8.05201 58.0445 8.09159C57.9395 8.14437 57.7885 8.11798 57.5653 7.97944L56.0028 6.98326L56.4886 6.23118ZM61.8589 14.5503L62.4038 13.9565L60.1979 11.9114L60.7428 11.3176L62.8568 13.2836L63.4017 12.6898L61.2877 10.7239L61.8261 10.1367L64.0057 12.1621L64.5506 11.5683L61.6751 8.89645L58.9571 11.8586L61.8589 14.5503ZM63.2179 16.1402L64.1961 15.9753L65.5945 17.8951L65.1349 18.7659L65.7521 19.6169L67.7873 15.5926L67.1045 14.6558L62.6205 15.3155L63.2179 16.1402ZM66.4348 15.6256L66.8222 15.5464L66.6252 15.8895L65.9818 17.11L65.0627 15.8433L66.4348 15.6256ZM66.599 21.4312L67.0257 22.3218L69.9209 20.9298L70.6825 22.5197L71.4047 22.17L69.4614 18.093L68.7392 18.4426L69.5008 20.0325L66.599 21.4312ZM69.12 28.9916L69.9012 28.8002L69.1856 25.8711L69.9669 25.6798L70.6497 28.4902L71.4309 28.2989L70.7481 25.4884L71.5163 25.2971L72.2188 28.1933L73 28.002L72.0677 24.1756L68.1746 25.1322L69.12 28.9916ZM70.4527 34.1044C70.4396 34.5134 70.7416 34.8697 71.1486 34.8829C71.5622 34.8961 71.8905 34.5728 71.9102 34.1638C71.9233 33.7547 71.6213 33.4051 71.2077 33.3853C70.8007 33.3655 70.4724 33.6954 70.4527 34.1044ZM67.4196 43.0502L68.1877 43.3009L69.1266 40.4311L69.8881 40.6818L68.9887 43.4329L69.7502 43.6835L70.6497 40.9325L71.4047 41.1832L70.479 44.0134L71.2471 44.2707L72.4748 40.5301L68.667 39.27L67.4196 43.0502ZM69.3563 45.7551C68.7983 45.4252 68.2468 45.6495 67.505 46.6391C67.3933 46.7776 67.111 47.1471 67.0126 47.2856C66.4939 47.9849 66.3167 48.0971 66.0672 47.9454C65.8374 47.8134 65.8243 47.5165 66.2904 46.7051C66.7631 45.8936 67.2095 45.6297 67.4984 45.7947L68.0236 44.904C67.4393 44.561 66.5727 44.6995 65.6536 46.2763C64.8855 47.5891 64.9314 48.4533 65.6142 48.8558C66.1919 49.1988 66.7565 48.9811 67.3736 48.1301C67.459 48.0179 67.761 47.6155 67.8989 47.4308C68.4963 46.6391 68.6736 46.5006 68.8968 46.6325C69.1134 46.7578 69.12 46.9953 68.6539 47.8068C68.1943 48.5919 67.8332 48.8228 67.5443 48.6513L67.0257 49.5353C67.5969 49.8717 68.4635 49.6606 69.2841 48.2488C70.0391 46.9624 69.9472 46.0981 69.3563 45.7551ZM65.2137 52.5106L62.8109 50.3797L62.1609 51.1186L64.5638 53.2495L63.4017 54.5755L64.0057 55.1099L66.9863 51.719L66.3889 51.1846L65.2137 52.5106ZM59.6399 53.586L60.3817 54.4172L61.1499 53.7245L60.408 52.8933L59.6399 53.586ZM57.4931 58.4415L56.6396 58.9363C56.6855 59.0221 56.7381 59.1342 56.7512 59.2134C56.8234 59.5169 56.6724 59.8005 56.2457 60.0446C55.727 60.3481 55.3856 60.3085 55.2281 60.0314C55.2084 59.9985 55.1887 59.9589 55.169 59.9259C54.8145 59.2925 55.3856 58.4547 56.6593 56.911L56.2654 56.2248L52.7661 58.2634L53.1601 58.9495L55.0836 57.828C54.2433 58.8242 53.9216 59.8071 54.2958 60.5064C54.3155 60.5526 54.3746 60.6516 54.4009 60.6978C54.716 61.2057 55.3594 61.4828 56.5871 60.7703C57.6047 60.1766 57.8476 59.5103 57.6966 58.9231C57.6441 58.7714 57.5653 58.5932 57.4931 58.4415ZM52.4773 60.6318C52.3919 60.4075 52.2672 60.1502 52.1359 59.9589C51.6172 59.2332 50.8032 59.055 49.7462 59.4707C48.7745 59.8533 48.2362 60.5394 48.3084 61.3905C48.3281 61.6148 48.4134 61.9314 48.5053 62.1689C48.6169 62.4592 48.7351 62.6901 48.8861 62.8946C49.3522 63.5016 50.2057 63.7325 51.243 63.33C52.3394 62.9012 52.7858 62.1491 52.6874 61.3443C52.6414 61.087 52.5758 60.8957 52.4773 60.6318ZM50.9542 62.6241C50.4092 62.8353 50.0088 62.7231 49.7527 62.4196C49.6411 62.2877 49.5164 62.0304 49.4376 61.8259C49.3654 61.6412 49.2866 61.3575 49.2669 61.2123C49.2209 60.7703 49.4704 60.4009 50.0219 60.1832C50.5668 59.9721 51.0001 60.0578 51.2693 60.4273C51.3678 60.5592 51.4794 60.7769 51.5647 60.9946C51.6304 61.1662 51.7091 61.4432 51.7288 61.6016C51.7682 62.0238 51.5188 62.4064 50.9542 62.6241ZM46.8378 61.905C46.4373 61.1134 45.6561 60.8099 44.5465 61.0606C43.5289 61.2849 42.8921 61.8918 42.8396 62.7429C42.8265 62.9672 42.8659 63.2971 42.9184 63.5478C42.984 63.8512 43.0694 64.0953 43.1875 64.3262C43.5618 64.9925 44.3693 65.3554 45.4525 65.1113C46.6014 64.854 47.1529 64.1745 47.1726 63.3696C47.1726 63.0925 47.1398 62.8946 47.0807 62.6241C47.0216 62.3866 46.9428 62.1162 46.8378 61.905ZM45.2753 64.3592C44.7041 64.4912 44.3233 64.313 44.1198 63.9766C44.0279 63.8314 43.9425 63.5543 43.8966 63.3432C43.8506 63.1453 43.8112 62.855 43.8178 62.7099C43.8375 62.2679 44.1395 61.938 44.7172 61.8061C45.2884 61.6807 45.702 61.8325 45.9121 62.2349C45.9843 62.38 46.0697 62.6109 46.1222 62.8419C46.1616 63.02 46.201 63.3103 46.1944 63.4686C46.1616 63.8908 45.8661 64.2273 45.2753 64.3592ZM41.172 62.7099C40.8175 62.0106 40.0691 61.7929 39.1434 61.8655C37.896 61.9578 37.3117 62.4724 37.2461 63.1189C37.2264 63.2575 37.2658 63.5873 37.2986 63.6929C37.4365 64.2932 37.9748 64.6627 39.0252 64.5835C39.7277 64.5307 40.2529 64.313 40.4893 64.1019C40.4958 64.2273 40.4893 64.3196 40.4827 64.4384C40.4564 64.8804 40.1151 65.1773 39.4585 65.2234C38.9399 65.263 38.6445 65.1905 38.5394 65.0123C38.5066 64.9661 38.4935 64.92 38.4869 64.887L37.5875 64.953C37.6072 65.0651 37.6334 65.1905 37.6794 65.296C37.9223 65.7842 38.4278 66.0811 39.5373 65.9953C40.6271 65.9161 41.2114 65.3686 41.3756 64.7484C41.4543 64.445 41.474 64.0887 41.4543 63.7721C41.415 63.3762 41.3033 62.9738 41.172 62.7099ZM39.2222 63.8644C38.5525 63.9172 38.3162 63.7193 38.2571 63.5016C38.2243 63.3894 38.2111 63.2443 38.2243 63.1453C38.2505 62.888 38.546 62.6439 39.1828 62.5978C39.7605 62.5516 40.1479 62.7165 40.3251 63.0793C40.3777 63.1915 40.3974 63.2905 40.4236 63.429C40.3186 63.5412 39.8524 63.8182 39.2222 63.8644ZM32.053 62.9144C31.646 62.8682 31.2783 63.1453 31.2324 63.5543C31.1864 63.97 31.4884 64.3196 31.8955 64.3658C32.3025 64.412 32.6701 64.1349 32.7161 63.7193C32.7621 63.3103 32.4601 62.9606 32.053 62.9144ZM24.851 60.1436C23.7218 59.7741 22.9668 59.8929 22.4876 60.3283C22.2578 60.5196 22.1265 60.7835 22.0543 60.9485L23.0128 61.2585C23.0719 61.12 23.1572 60.9946 23.2885 60.9155C23.6299 60.711 24.0238 60.7307 24.6081 60.9155C25.1071 61.0738 25.5601 61.3773 25.7045 61.7863C25.7701 61.9842 25.7636 62.2349 25.652 62.578C25.5535 62.888 25.4156 63.0991 25.2449 63.2245C24.9364 63.462 24.4637 63.5016 23.8465 63.3037C23.2229 63.0991 22.888 62.8089 22.783 62.512C22.7305 62.3734 22.7173 62.2085 22.7502 62.0766L21.7916 61.7665C21.7523 61.9116 21.7129 62.2019 21.7588 62.446C21.9033 63.0728 22.3694 63.6995 23.5774 64.0953C24.6278 64.4384 25.3565 64.313 25.8686 63.9634C26.1903 63.7589 26.4398 63.3894 26.5974 62.888C26.7746 62.3405 26.7681 61.8787 26.6105 61.5092C26.4201 60.9748 25.8621 60.4735 24.851 60.1436ZM19.2641 57.762C18.4172 57.3134 17.6884 57.188 17.1238 57.4123C16.7036 57.5707 16.3491 57.9005 16.0668 58.4349C15.7911 58.9495 15.6992 59.4047 15.8239 59.8665C15.9946 60.4866 16.4607 61.0012 17.3142 61.4564C18.1677 61.9116 18.8308 61.9974 19.4741 61.7731C19.914 61.6214 20.2423 61.2915 20.4983 60.8099C20.7806 60.2689 20.8463 59.7807 20.7215 59.3321C20.5574 58.7318 20.0847 58.204 19.2641 57.762ZM19.6383 60.3217C19.4676 60.6384 19.2312 60.8759 18.9818 60.9682C18.6601 61.0738 18.2333 61.0276 17.6884 60.7439C17.1172 60.4405 16.8875 60.1502 16.7627 59.7939C16.6708 59.5366 16.7693 59.1936 16.9334 58.8769C17.0975 58.5669 17.3208 58.303 17.5965 58.2238C17.9576 58.1182 18.3449 58.1644 18.8898 58.4547C19.3888 58.7252 19.6383 58.9957 19.7696 59.3321C19.8943 59.6422 19.8155 59.9787 19.6383 60.3217ZM12.9484 53.5398L12.456 54.1797L14.5306 55.7894L12.5741 58.336L13.3423 58.9297L15.7911 55.7433L12.9484 53.5398ZM8.74665 50.0565C8.30022 50.0631 7.85378 50.2544 7.40735 50.6634C6.98062 51.0592 6.7377 51.4551 6.70488 51.9301C6.66549 52.5766 6.93466 53.2099 7.58461 53.929C8.23456 54.6415 8.832 54.9516 9.51477 54.9516C9.9809 54.9516 10.4011 54.7603 10.8015 54.3842C11.248 53.9686 11.4712 53.5332 11.504 53.0648C11.5434 52.4578 11.2742 51.7981 10.644 51.1054C10.0006 50.3995 9.35064 50.0367 8.74665 50.0565ZM10.145 53.6453C9.88242 53.8894 9.58042 54.0346 9.31782 54.0346C8.97643 54.028 8.58908 53.8433 8.17548 53.3881C7.74218 52.9131 7.61744 52.5568 7.61744 52.1808C7.61744 51.9103 7.82096 51.6134 8.08356 51.3759C8.33961 51.1384 8.64161 50.9669 8.92391 50.9867C9.30469 51.0065 9.64608 51.1846 10.0662 51.6398C10.447 52.062 10.5915 52.3985 10.6046 52.7613C10.6177 53.0912 10.4339 53.3815 10.145 53.6453ZM7.57148 47.246L6.22562 48.0377L5.4378 46.6853L6.24532 44.9634L5.69384 44.0134L4.82724 45.92C4.64341 45.6957 4.36768 45.5835 4.12477 45.577C3.92781 45.5704 3.69146 45.6429 3.44199 45.7881C3.16625 45.9464 3.00869 46.1245 2.92334 46.3422C2.7986 46.6589 2.84456 47.0943 3.15312 47.6221L4.59089 50.1092L8.05074 48.0773L7.57148 47.246ZM4.78785 48.8822L3.88185 47.3252C3.73742 47.0745 3.71772 46.9162 3.78338 46.7776C3.8162 46.6985 3.90155 46.6325 3.9869 46.5863C4.05911 46.5467 4.15759 46.5006 4.25607 46.5072C4.37424 46.5072 4.49241 46.6061 4.63028 46.8304L5.56254 48.4335L4.78785 48.8822ZM4.58433 43.3009L5.29993 43.0634L3.95407 38.9336L3.19908 39.1842L4.13133 42.0606L0.875004 40.0485L0.172531 40.2794L1.44617 44.1915L2.2143 43.9408L1.37396 41.3547L4.58433 43.3009ZM0.815918 34.1506C0.829048 34.5596 1.16387 34.8895 1.57748 34.8697C1.98452 34.8565 2.28652 34.5002 2.27339 34.0912C2.26026 33.6822 1.92543 33.3523 1.51839 33.3721C1.09822 33.3919 0.796222 33.7416 0.815918 34.1506ZM63.8153 33.0488V33.0357C63.8153 26.3263 60.71 20.2634 55.7402 15.8961C50.7638 11.5287 43.9163 8.83708 36.3598 8.83708C28.8033 8.83708 21.9558 11.5287 16.9794 15.8961C12.003 20.2634 8.90421 26.3329 8.90421 33.0422C8.90421 39.7516 12.003 45.821 16.9794 50.1884C21.9558 54.5558 28.8033 57.2474 36.3598 57.2474C43.9163 57.2474 50.7638 54.5623 55.7402 50.1884C60.7166 45.8276 63.8153 39.7582 63.8153 33.0488ZM54.8407 16.9319C58.2678 19.9468 60.7363 23.7798 61.8261 28.0614C59.3182 25.3829 56.1866 23.1134 52.6086 21.3982C51.7748 19.419 50.7375 17.5982 49.5229 16.0016C48.118 14.1478 46.4767 12.5909 44.6647 11.4034C48.5513 12.5447 52.0243 14.4579 54.8407 16.9319ZM42.9775 11.9774C46.0434 13.686 48.6826 16.5624 50.5537 20.2107C50.6128 20.3294 50.6718 20.4482 50.7244 20.5603C48.0917 19.485 45.249 18.6933 42.2553 18.2447C42.0977 17.5388 41.927 16.8659 41.7432 16.226C41.1261 14.0555 40.3908 12.2742 39.5242 10.9878C39.4191 10.8294 39.3075 10.6711 39.1894 10.526C40.5155 10.8228 41.776 11.311 42.9775 11.9774ZM35.4078 10.5655C35.7558 10.3149 36.0643 10.2159 36.3598 10.2159C36.6552 10.2159 36.9638 10.3149 37.3117 10.5655C37.6137 10.7833 37.942 11.1197 38.2637 11.5617C38.8283 12.3468 39.3863 13.4683 39.8853 14.8603C40.2267 15.8037 40.5352 16.8791 40.8175 18.0534C39.3601 17.8885 37.8763 17.8027 36.3663 17.8027C34.8563 17.8027 33.3661 17.8885 31.9151 18.0534C32.0333 17.552 32.1646 17.0638 32.2959 16.602C32.8868 14.5173 33.5958 12.8548 34.3311 11.7596C34.6922 11.2121 35.0664 10.8162 35.4078 10.5655ZM33.5302 10.5326C33.4711 10.6051 33.412 10.6777 33.3595 10.7569C32.6833 11.6937 32.0924 12.9208 31.5606 14.3985C31.1536 15.5398 30.7859 16.8329 30.4642 18.2447C27.4771 18.6933 24.6344 19.485 22.0017 20.5603C22.6648 19.2079 23.4329 17.961 24.2864 16.8329C25.8489 14.7746 27.7069 13.1187 29.7486 11.9774C30.9435 11.311 32.2106 10.8228 33.5302 10.5326ZM17.8788 16.9319C20.6953 14.4579 24.1682 12.5447 28.0483 11.4034C25.1596 13.2968 22.7239 16.127 20.9513 19.5839C20.6493 20.1711 20.3736 20.778 20.111 21.3982C16.5329 23.1134 13.4014 25.3829 10.8935 28.0614C11.9833 23.7798 14.4518 19.9468 17.8788 16.9319ZM11.7535 29.1499C17.2945 23.1266 26.2494 19.1749 36.3663 19.1749C46.4833 19.1749 55.4316 23.12 60.9792 29.1499C61.9574 30.212 62.4563 31.6238 62.4563 33.0422C62.4563 34.4606 61.9574 35.8725 60.9792 36.9346C55.4316 42.9645 46.4767 46.9162 36.3598 46.9096C26.2428 46.9096 17.2945 42.9645 11.7469 36.9346C10.7687 35.8725 10.2698 34.4606 10.2698 33.0422C10.2698 31.6238 10.7687 30.2186 11.7535 29.1499ZM17.8788 49.1526C14.4452 46.1377 11.9833 42.3047 10.8935 38.0231C13.4014 40.7016 16.5329 42.9711 20.111 44.6863C20.9447 46.6655 21.982 48.4863 23.1966 50.0828C24.6015 51.9367 26.2428 53.487 28.0548 54.6811C24.1748 53.5464 20.7018 51.6332 17.8788 49.1526ZM29.7486 54.1137C26.6827 52.4051 24.0435 49.5287 22.1724 45.8804C22.1133 45.7617 22.0543 45.6429 21.9952 45.5242C24.6278 46.5995 27.4705 47.3912 30.4642 47.8398C30.6218 48.5457 30.7925 49.2186 30.9763 49.8585C31.5935 52.029 32.3288 53.8103 33.1954 55.0967C33.3004 55.2551 33.412 55.4068 33.5302 55.5585C32.2106 55.2617 30.9435 54.7801 29.7486 54.1137ZM37.3117 55.5255C36.9638 55.7762 36.6552 55.8752 36.3598 55.8752C36.0643 55.8752 35.7558 55.7762 35.4078 55.5255C35.1058 55.3078 34.7776 54.978 34.4559 54.5294C33.8913 53.7509 33.3332 52.6228 32.8343 51.2308C32.4929 50.2874 32.1843 49.212 31.902 48.0377C33.3595 48.2026 34.8432 48.2884 36.3532 48.2884C37.8632 48.2884 39.3535 48.2026 40.8044 48.0377C40.6862 48.5391 40.5549 49.0273 40.4236 49.4891C39.8327 51.5738 39.1237 53.2363 38.3884 54.3314C38.0339 54.8724 37.6597 55.2748 37.3117 55.5255ZM39.1959 55.5585C39.255 55.486 39.3141 55.4134 39.3666 55.3342C40.0428 54.3974 40.6337 53.1703 41.1655 51.6926C41.5725 50.5512 41.9402 49.2582 42.2619 47.8464C45.249 47.3912 48.0917 46.6061 50.7244 45.5308C50.0613 46.8832 49.2932 48.1367 48.4397 49.2582C46.8772 51.3165 45.0192 52.9724 42.9775 54.1137C41.776 54.7801 40.509 55.2682 39.1959 55.5585ZM44.6713 54.6811C47.56 52.7877 49.9956 49.9575 51.7682 46.5072C52.0702 45.92 52.346 45.3131 52.6086 44.6929C56.1866 42.9776 59.3182 40.7082 61.8261 38.0297C60.7363 42.3113 58.2743 46.1443 54.8407 49.1592C52.0243 51.6332 48.5513 53.5398 44.6713 54.6811ZM36.4189 42.5092C44.2774 42.5092 48.4266 40.4905 50.1007 36.8884C50.4289 36.2089 50.639 35.0874 50.7309 34.5002H43.5289C43.5092 34.7113 43.437 35.0148 43.2729 35.2259C42.2487 36.7961 39.6817 37.2645 36.4648 37.2645C33.5302 37.2645 30.6152 36.5388 29.4926 34.7311C29.2103 34.2627 29.0724 33.7218 29.0724 33.095C29.0724 32.4419 29.1906 31.8745 29.4663 31.4061C30.4445 29.7173 33.0575 28.853 36.4582 28.853C40.0691 28.853 42.2159 29.8624 43.0103 30.8652C43.2466 31.1225 43.4042 31.4523 43.4764 31.6832H50.6784C50.6325 31.2412 50.5143 30.3704 50.1204 29.5061C48.722 26.6495 45.2228 23.5818 36.5042 23.5818C29.6502 23.5818 25.4747 25.5016 23.3804 28.3846C22.4482 29.6711 21.982 31.2874 21.982 33.0488C21.982 34.9225 22.4941 36.5849 23.4526 37.944C25.4419 40.7082 29.5911 42.5092 36.4189 42.5092Z" fill="#18181B"/>
</svg>
